<?xml version="1.0" standalone="no"?>
<!DOCTYPE svg PUBLIC "-//W3C//DTD SVG 20010904//EN"
 "http://www.w3.org/TR/2001/REC-SVG-20010904/DTD/svg10.dtd">
<svg version="1.0" xmlns="http://www.w3.org/2000/svg"
 width="512.000000pt" height="512.000000pt" viewBox="0 0 512.000000 512.000000"
 preserveAspectRatio="xMidYMid meet">
<metadata>
Created by potrace 1.16, written by Peter Selinger 2001-2019
</metadata>
<g transform="translate(0.000000,512.000000) scale(0.100000,-0.100000)"
fill="#000000" stroke="none">
<path d="M2005 5110 c-218 -19 -337 -52 -541 -152 -166 -81 -189 -103 -180
-173 3 -28 14 -48 36 -67 49 -45 86 -39 252 42 239 117 349 135 833 134 312 0
338 -2 475 -27 167 -30 306 -68 479 -132 144 -53 199 -58 236 -21 46 46 44
131 -5 168 -70 51 -491 178 -715 214 -116 19 -701 28 -870 14z"/>
<path d="M2205 4689 c-314 -15 -597 -85 -860 -214 -218 -106 -400 -240 -515
-379 -94 -114 -107 -153 -70 -214 22 -35 54 -52 102 -52 32 0 73 36 151 133
46 57 195 178 292 237 494 302 1209 354 1837 134 287 -101 605 -300 699 -438
63 -94 185 -78 209 27 12 56 -19 110 -120 208 -308 301 -895 533 -1405 554
-71 3 -141 7 -155 9 -14 1 -88 -1 -165 -5z"/>
<path d="M2290 4259 c-329 -27 -676 -162 -943 -366 -160 -122 -338 -322 -451
-506 -151 -246 -256 -605 -256 -883 0 -97 1 -101 28 -127 36 -35 79 -43 126
-23 45 19 66 62 66 138 0 77 25 251 49 346 126 493 493 911 956 1091 210 82
375 113 600 112 217 -1 362 -23 538 -82 198 -66 358 -170 517 -335 108 -111
188 -221 345 -469 191 -300 274 -394 410 -461 61 -30 81 -36 112 -31 50 8 93
55 93 102 0 57 -19 84 -83 117 -112 56 -179 136 -372 443 -173 274 -309 446
-448 563 -271 229 -557 341 -951 372 -142 11 -196 11 -336 -1z"/>
<path d="M2295 3833 c-90 -11 -212 -40 -300 -70 -427 -147 -760 -500 -879
-932 -72 -260 -71 -465 2 -766 31 -132 36 -166 36 -280 1 -111 -2 -140 -22
-198 -50 -143 -139 -238 -287 -307 -91 -43 -114 -64 -121 -111 -12 -82 67
-143 151 -119 176 52 342 194 426 365 63 128 74 185 74 375 0 158 -2 172 -39
320 -33 135 -39 174 -43 305 -4 114 -1 171 11 237 82 435 386 780 805 912 465
147 983 -25 1281 -425 62 -84 138 -225 165 -307 9 -30 31 -70 48 -89 87 -99
698 -600 742 -609 47 -9 99 19 121 64 29 61 7 101 -102 192 -596 494 -591 489
-602 528 -7 21 -36 88 -66 148 -207 420 -612 706 -1081 763 -85 10 -254 13
-320 4z"/>
<path d="M4084 3806 c-52 -52 -48 -81 41 -242 41 -76 93 -182 116 -236 46
-109 66 -130 127 -132 67 -1 112 44 112 114 0 70 -199 464 -258 510 -15 12
-40 20 -64 20 -32 0 -47 -7 -74 -34z"/>
<path d="M2365 3409 c-285 -22 -545 -179 -711 -431 -84 -128 -135 -270 -155
-438 -14 -117 -6 -200 36 -405 89 -423 105 -716 50 -898 -36 -121 -121 -229
-229 -292 -27 -16 -94 -46 -150 -67 -110 -42 -118 -48 -134 -96 -22 -64 10
-122 75 -141 35 -10 159 27 256 75 433 218 527 605 352 1455 -57 276 -46 434
45 614 71 142 186 256 332 329 121 62 211 80 357 73 197 -9 337 -71 482 -216
93 -93 144 -173 183 -287 53 -156 117 -248 300 -429 144 -143 326 -303 573
-503 212 -172 223 -177 289 -146 44 21 68 66 60 112 -7 45 -17 55 -166 176
-421 339 -700 601 -786 738 -15 23 -40 78 -56 121 -59 161 -133 280 -241 384
-211 204 -468 295 -762 272z"/>
<path d="M2362 2954 c-131 -23 -243 -88 -317 -186 -121 -159 -152 -326 -94
-515 12 -38 49 -126 83 -198 119 -248 285 -475 551 -754 231 -242 870 -783
939 -797 96 -17 162 105 98 181 -9 11 -85 75 -168 142 -349 280 -697 602 -874
808 -268 313 -441 636 -439 824 0 81 22 137 77 201 112 130 309 139 445 21 36
-32 68 -90 122 -225 117 -287 463 -655 1115 -1183 132 -107 171 -121 230 -86
52 30 67 109 29 157 -11 14 -80 74 -152 133 -271 220 -407 342 -598 532 -263
264 -358 392 -450 611 -105 249 -336 378 -597 334z"/>
<path d="M2381 2534 c-44 -37 -48 -75 -16 -170 126 -377 470 -772 1070 -1228
72 -55 172 -134 223 -175 124 -101 141 -111 184 -111 74 0 127 81 98 150 -16
38 -69 84 -360 310 -283 221 -393 315 -540 461 -243 243 -404 476 -466 673
-26 83 -60 116 -117 116 -34 0 -53 -6 -76 -26z"/>
<path d="M704 2126 c-66 -29 -77 -79 -48 -209 30 -130 84 -255 128 -296 45
-42 136 -26 166 29 20 37 13 85 -23 166 -19 45 -45 122 -58 173 -22 88 -52
141 -83 141 -6 0 -20 2 -31 5 -11 3 -34 -2 -51 -9z"/>
<path d="M1958 1477 c-43 -35 -50 -67 -33 -148 48 -229 -28 -554 -178 -756
-50 -67 -107 -114 -173 -143 -90 -39 -111 -135 -43 -193 46 -38 90 -36 179 10
268 138 464 566 447 978 -6 154 -24 225 -66 254 -39 28 -98 27 -133 -2z"/>
<path d="M2503 849 c-138 -26 -244 -150 -307 -359 -34 -113 -55 -226 -63 -335
l-6 -91 32 -32 c28 -27 40 -32 79 -32 78 1 105 34 117 140 22 207 80 386 148
458 25 26 39 32 71 32 98 0 196 -77 336 -261 98 -128 134 -159 189 -159 51 0
101 54 101 110 0 37 -9 55 -57 120 -32 43 -80 107 -106 144 -81 112 -203 198
-337 240 -94 29 -144 36 -197 25z"/>
</g>
</svg>
