<svg xmlns="http://www.w3.org/2000/svg" viewBox="0 0 24 24" fill="currentColor">
  <path d="M17.0015 1.99963C19.2106 1.99963 21.0015 3.7905 21.0015 5.99964V20.003C21.0019 21.0573 20.186 21.9211 19.1512 21.9975L19.0015 22.0025L8.00146 22.0001C6.89707 21.9994 6.00191 21.104 6.00146 19.9996V8.00331H4.00146C3.44918 8.00331 3.00146 7.55559 3.00146 7.00331V5.00331C3.00146 3.34645 4.34461 2.00331 6.00146 2.00331H8.34846C8.39856 2.00083 8.44877 1.9996 8.49902 1.99963H17.0015ZM8.49759 3.99964C8.38809 3.99956 8.27932 4.01746 8.17563 4.05263C7.69 4.21735 7.41378 4.71862 7.52971 5.24125L7.56351 5.3621L7.66804 5.69546C7.85261 6.32997 7.96111 6.97021 7.99215 7.6132L8.00146 7.9993L8.00191 20.0001L19.0015 20.003V5.99964C19.0015 4.94528 18.1856 4.08147 17.1507 4.00512L17.0015 3.99964L8.49759 3.99964ZM11 15.9996H13C13.5523 15.9996 14 16.4474 14 16.9996C14 17.5519 13.5523 17.9996 13 17.9996H11C10.4477 17.9996 10 17.5519 10 16.9996C10 16.4474 10.4477 15.9996 11 15.9996ZM16 15.9996C16.5523 15.9996 17 16.4474 17 16.9996C17 17.5519 16.5523 17.9996 16 17.9996C15.4477 17.9996 15 17.5519 15 16.9996C15 16.4474 15.4477 15.9996 16 15.9996ZM11.9992 13C13.2826 13 14 12.1637 14 11.1894C14 9.35451 11.4811 9.55748 11.4811 8.7131C11.4811 8.48577 11.6644 8.30715 12.1028 8.30715C12.4775 8.30715 12.7405 8.44517 13.0036 8.57508C13.2268 8.68874 13.442 8.73746 13.6014 8.42081L13.7928 8.03922C13.9123 7.80376 13.8884 7.60079 13.6572 7.43029C13.3862 7.23543 12.7804 6.99997 12.1188 6.99997C10.9629 6.99997 10.0861 7.70633 10.0861 8.77805C10.0861 10.5967 12.605 10.4668 12.605 11.2868C12.605 11.5142 12.4137 11.6928 11.9992 11.6928C11.505 11.6928 11.1463 11.433 10.9629 11.3356C10.6999 11.1894 10.5165 11.2057 10.3571 11.4411L10.11 11.8065C9.90275 12.1069 10.0223 12.2855 10.1897 12.4235C10.4926 12.6671 11.2021 13 11.9992 13ZM14.6506 13C14.9201 13 15.0835 12.8863 15.1652 12.6591L16.9701 7.47725C17.0681 7.18179 16.9211 6.99997 16.5944 6.99997H16.3494C16.0799 6.99997 15.9165 7.11361 15.8349 7.34088L14.03 12.5303C13.9319 12.8182 14.079 13 14.4056 13H14.6506Z" />
</svg>